<svg xmlns="http://www.w3.org/2000/svg" enable-background="new 0 0 100 100" viewBox="0 0 100 100" id="blockchain-research">
  <path d="M30.85,72.4c-0.18,0.35-0.53,0.55-0.9,0.55c-0.15,0-0.3-0.03-0.45-0.11l-12-6c-0.34-0.17-0.55-0.52-0.55-0.89v-12
	c0-0.55,0.45-1,1-1s1,0.45,1,1v11.38l11.45,5.72C30.89,71.31,31.09,71.91,30.85,72.4z M54.85,85.51c0.25,0.49,0.05,1.09-0.45,1.34
	l-8,4c-0.01,0-0.02,0-0.03,0.01c-0.13,0.06-0.27,0.1-0.42,0.1s-0.29-0.04-0.42-0.1c-0.01,0-0.02,0-0.03-0.01l-36-18
	c-0.34-0.17-0.55-0.52-0.55-0.89v-44c0-0.12,0.03-0.24,0.07-0.35c0.01-0.03,0.02-0.06,0.04-0.09c0.04-0.08,0.09-0.16,0.16-0.23
	c0.02-0.02,0.03-0.04,0.04-0.05c0.07-0.07,0.15-0.13,0.25-0.18l36-18c0.28-0.14,0.61-0.14,0.89,0l36,18
	c0.09,0.05,0.17,0.11,0.25,0.18c0.02,0.02,0.03,0.03,0.04,0.05c0.06,0.07,0.11,0.15,0.16,0.23c0.01,0.03,0.03,0.06,0.04,0.09
	c0.04,0.11,0.07,0.22,0.07,0.35v22c0,0.55-0.45,1-1,1s-1-0.45-1-1V29.57l-34,17v41.76l6.55-3.28C54,84.81,54.6,85.01,54.85,85.51z
	 M12.19,27.95l33.76,16.88l33.76-16.88L45.95,11.07L12.19,27.95z M10.95,71.33l34,17V46.57l-34-17V71.33z M57.51,24.85
	c0.14,0.07,0.3,0.11,0.45,0.11c0.37,0,0.72-0.2,0.9-0.55c0.25-0.49,0.05-1.09-0.45-1.34l-12-6c-0.31-0.15-0.67-0.14-0.96,0.04l-10,6
	c-0.47,0.28-0.63,0.9-0.34,1.37c0.28,0.47,0.9,0.63,1.37,0.34L46,19.09L57.51,24.85z M91.05,86.83c0,0.93-0.36,1.8-1.02,2.46
	l-0.74,0.74c-0.66,0.66-1.53,1.02-2.46,1.02c-0.93,0-1.8-0.36-2.46-1.02l-7.25-7.25c-0.39-0.39-0.39-1.02,0-1.41l1.41-1.41
	l-2.43-2.43c-2.46,2.13-5.65,3.43-9.15,3.43c-7.72,0-14-6.28-14-14s6.28-14,14-14s14,6.28,14,14c0,3.5-1.3,6.7-3.43,9.15l2.43,2.43
	l1.41-1.41c0.38-0.38,1.04-0.38,1.41,0l7.25,7.25C90.69,85.03,91.05,85.9,91.05,86.83z M66.95,78.95c6.62,0,12-5.38,12-12
	s-5.38-12-12-12s-12,5.38-12,12S60.34,78.95,66.95,78.95z M89.05,86.83c0-0.4-0.15-0.77-0.43-1.05l-6.54-6.54l-2.83,2.83l6.54,6.54
	c0.56,0.56,1.53,0.56,2.09,0l0.74-0.74C88.89,87.6,89.05,87.23,89.05,86.83z"></path>
</svg>
